<svg xmlns="http://www.w3.org/2000/svg" width="16" height="16" viewBox="0 0 16 16" fill="none">
  <path fill-rule="evenodd" clip-rule="evenodd" d="M7.64565 4.64599C7.6921 4.59943 7.74728 4.56249 7.80802 4.53728C7.86877 4.51207 7.93389 4.4991 7.99965 4.4991C8.06542 4.4991 8.13054 4.51207 8.19129 4.53728C8.25203 4.56249 8.30721 4.59943 8.35365 4.64599L14.3537 10.646C14.4475 10.7399 14.5003 10.8672 14.5003 11C14.5003 11.1328 14.4475 11.2601 14.3537 11.354C14.2598 11.4479 14.1324 11.5006 13.9997 11.5006C13.8669 11.5006 13.7395 11.4479 13.6457 11.354L7.99965 5.70699L2.35366 11.354C2.25977 11.4479 2.13243 11.5006 1.99966 11.5006C1.86688 11.5006 1.73954 11.4479 1.64566 11.354C1.55177 11.2601 1.49902 11.1328 1.49902 11C1.49902 10.8672 1.55177 10.7399 1.64566 10.646L7.64565 4.64599Z" fill="#0A0A0A"/>
</svg>