<svg width="100" height="100" viewBox="0 0 100 100" fill="none" xmlns="http://www.w3.org/2000/svg">
<circle cx="50" cy="50" r="49" fill="#426FFF"/>
<path d="M34.375 46.875C37.8267 46.875 40.625 44.0767 40.625 40.625C40.625 37.1732 37.8267 34.375 34.375 34.375C30.9232 34.375 28.125 37.1732 28.125 40.625C28.125 44.0767 30.9232 46.875 34.375 46.875Z" fill="white"/>
<path d="M71.875 40.625C71.875 44.0767 69.0769 46.875 65.625 46.875C62.1731 46.875 59.375 44.0767 59.375 40.625C59.375 37.1732 62.1731 34.375 65.625 34.375C69.0769 34.375 71.875 37.1732 71.875 40.625Z" fill="white"/>
<path d="M72.9957 59.0395C71.6538 57.9664 69.6995 58.1776 68.6182 59.5089L68.6001 59.5295C68.5757 59.5576 68.5282 59.612 68.4569 59.6889C68.3144 59.8426 68.0776 60.0851 67.7444 60.3882C67.0776 60.9945 66.0288 61.8382 64.5763 62.6926C61.6901 64.3914 57.1569 66.167 50.7426 66.167C44.3279 66.167 39.7881 64.3907 36.8946 62.6914C35.4389 61.8364 34.3866 60.992 33.7171 60.3851C33.3826 60.082 33.1449 59.8389 33.0016 59.6851C32.9299 59.6082 32.8821 59.5539 32.8576 59.5257L32.8396 59.5045C31.7558 58.1751 29.8006 57.9676 28.4611 59.0432C27.1156 60.1239 26.9009 62.0907 27.9817 63.4364L30.4181 61.4795C27.9817 63.4364 27.9817 63.4364 27.9817 63.4364L27.9862 63.442L27.9913 63.4482L28.0033 63.4632L28.0345 63.5007L28.1263 63.6095C28.2006 63.6951 28.3013 63.8089 28.4287 63.9457C28.6834 64.2189 29.0457 64.5864 29.5191 65.0151C30.4652 65.8732 31.8597 66.9826 33.729 68.0801C37.4854 70.287 43.1078 72.417 50.7426 72.417C58.3776 72.417 63.9944 70.287 67.7463 68.0789C69.6132 66.9807 71.0051 65.8707 71.9488 65.0126C72.4213 64.5832 72.7832 64.2151 73.0369 63.942C73.1638 63.8051 73.2644 63.6914 73.3388 63.6051L73.4301 63.4964L73.4613 63.4589L73.4738 63.4439L73.4788 63.4376C73.4788 63.4376 73.4832 63.432 71.0432 61.4795L73.4832 63.432C74.5613 62.0845 74.3432 60.1176 72.9957 59.0395Z" fill="white"/>
<path d="M50 0C22.3857 0 0 22.3857 0 50C0 77.6144 22.3857 100 50 100C77.6144 100 100 77.6144 100 50C100 22.3857 77.6144 0 50 0ZM6.25 50C6.25 25.8376 25.8376 6.25 50 6.25C74.1625 6.25 93.75 25.8376 93.75 50C93.75 74.1625 74.1625 93.75 50 93.75C25.8376 93.75 6.25 74.1625 6.25 50Z" fill="none"/>
</svg>
