<svg width="100" height="100" viewBox="0 0 100 100" fill="none" xmlns="http://www.w3.org/2000/svg">
<circle cx="50" cy="50" r="50" fill="white"/>
<path d="M30.0615 44.2086C34.1876 37.1352 38.3137 37.1353 42.4398 44.2086" stroke="#426FFF" stroke-width="3" stroke-linecap="round"/>
<path d="M70.7334 44.2086C66.6073 37.1352 62.4812 37.1353 58.3551 44.2086" stroke="#426FFF" stroke-width="3" stroke-linecap="round"/>
<path fill-rule="evenodd" clip-rule="evenodd" d="M70.708 65.4579C71.2463 65.5327 71.7721 65.749 72.2274 66.1131C73.5749 67.1912 73.793 69.1581 72.7149 70.5056L70.2749 68.5531C72.7149 70.5056 72.7105 70.5112 72.7105 70.5112L72.7055 70.5175L72.693 70.5325L72.6618 70.57L72.5705 70.6787C72.4962 70.765 72.3955 70.8787 72.2687 71.0156C72.0149 71.2887 71.653 71.6568 71.1805 72.0862C70.2368 72.9443 68.8449 74.0543 66.978 75.1525C63.2262 77.3606 57.6093 79.4906 49.9743 79.4906C42.3395 79.4906 36.7172 77.3606 32.9607 75.1537C31.0914 74.0562 29.6969 72.9468 28.7508 72.0887C28.2774 71.66 27.9151 71.2925 27.6604 71.0193C27.533 70.8825 27.4324 70.7687 27.358 70.6831L27.2662 70.5743L27.235 70.5368L27.223 70.5218L27.2179 70.5156L27.2134 70.51C26.1326 69.1643 26.3473 67.1975 27.6929 66.1168C28.1466 65.7525 28.671 65.5353 29.2082 65.4592L29.1772 65.4282H70.2632C70.2723 65.4281 70.2814 65.4281 70.2905 65.4282H70.7329L70.708 65.4579Z" fill="#426FFF"/>
<path d="M50 0C22.3857 0 0 22.3857 0 50C0 77.6144 22.3857 100 50 100C77.6144 100 100 77.6144 100 50C100 22.3857 77.6144 0 50 0ZM6.25 50C6.25 25.8376 25.8376 6.25 50 6.25C74.1625 6.25 93.75 25.8376 93.75 50C93.75 74.1625 74.1625 93.75 50 93.75C25.8376 93.75 6.25 74.1625 6.25 50Z" fill="#426FFF"/>
</svg>
