<svg width="100" height="100" viewBox="0 0 100 100" fill="none" xmlns="http://www.w3.org/2000/svg">
<circle cx="50" cy="50" r="49" fill="#426FFF"/>
<path d="M34.375 46.875C37.8267 46.875 40.625 44.0767 40.625 40.625C40.625 37.1732 37.8267 34.375 34.375 34.375C30.9232 34.375 28.125 37.1732 28.125 40.625C28.125 44.0767 30.9232 46.875 34.375 46.875Z" fill="white"/>
<path d="M71.8755 40.625C71.8755 44.0767 69.0774 46.875 65.6255 46.875C62.1736 46.875 59.3755 44.0767 59.3755 40.625C59.3755 37.1732 62.1736 34.375 65.6255 34.375C69.0774 34.375 71.8755 37.1732 71.8755 40.625Z" fill="white"/>
<path d="M28.2935 68.9648H73.3858" stroke="white" stroke-width="3" stroke-linecap="round"/>
<path d="M50 0C22.3857 0 0 22.3857 0 50C0 77.6144 22.3857 100 50 100C77.6144 100 100 77.6144 100 50C100 22.3857 77.6144 0 50 0ZM6.25 50C6.25 25.8376 25.8376 6.25 50 6.25C74.1625 6.25 93.75 25.8376 93.75 50C93.75 74.1625 74.1625 93.75 50 93.75C25.8376 93.75 6.25 74.1625 6.25 50Z" fill="none"/>
</svg>
