<svg width="100" height="100" viewBox="0 0 100 100" fill="none" xmlns="http://www.w3.org/2000/svg">
<circle cx="50" cy="50" r="50" fill="white"/>
<path d="M34.3745 46.875C37.8263 46.875 40.6245 44.0767 40.6245 40.625C40.6245 37.1732 37.8263 34.375 34.3745 34.375C30.9228 34.375 28.1245 37.1732 28.1245 40.625C28.1245 44.0767 30.9228 46.875 34.3745 46.875Z" fill="#426FFF"/>
<path d="M71.8755 40.625C71.8755 44.0767 69.0774 46.875 65.6255 46.875C62.1736 46.875 59.3755 44.0767 59.3755 40.625C59.3755 37.1732 62.1736 34.375 65.6255 34.375C69.0774 34.375 71.8755 37.1732 71.8755 40.625Z" fill="#426FFF"/>
<path d="M72.2657 71.1905C70.9238 72.2636 68.9695 72.0524 67.8882 70.7211L67.8701 70.7005C67.8457 70.6724 67.7982 70.618 67.727 70.5411C67.5845 70.3874 67.3476 70.1449 67.0145 69.8417C66.3476 69.2355 65.2988 68.3917 63.8463 67.5374C60.9601 65.8386 56.427 64.063 50.0126 64.063C43.5979 64.063 39.0581 65.8392 36.1646 67.5386C34.709 68.3936 33.6566 69.238 32.9872 69.8449C32.6527 70.148 32.415 70.3911 32.2717 70.5449C32.2 70.6217 32.1521 70.6761 32.1277 70.7042L32.1097 70.7255C31.0258 72.0549 29.0706 72.2624 27.7312 71.1867C26.3856 70.1061 26.1709 68.1392 27.2517 66.7936L29.6881 68.7505C27.2517 66.7936 27.2517 66.7936 27.2517 66.7936L27.2562 66.788L27.2613 66.7817L27.2733 66.7667L27.3045 66.7292L27.3963 66.6205C27.4707 66.5349 27.5713 66.4211 27.6987 66.2842C27.9534 66.0111 28.3157 65.6436 28.7891 65.2149C29.7352 64.3567 31.1297 63.2474 32.999 62.1499C36.7555 59.943 42.3778 57.813 50.0126 57.813C57.6476 57.813 63.2645 59.943 67.0163 62.1511C68.8832 63.2492 70.2751 64.3592 71.2188 65.2174C71.6913 65.6467 72.0532 66.0149 72.307 66.288C72.4338 66.4249 72.5345 66.5386 72.6088 66.6249L72.7001 66.7336L72.7313 66.7711L72.7438 66.7861L72.7488 66.7924C72.7488 66.7924 72.7532 66.798 70.3132 68.7505L72.7532 66.798C73.8313 68.1455 73.6132 70.1124 72.2657 71.1905Z" fill="#426FFF"/>
<path d="M50 0C22.3857 0 0 22.3857 0 50C0 77.6144 22.3857 100 50 100C77.6144 100 100 77.6144 100 50C100 22.3857 77.6144 0 50 0ZM6.25 50C6.25 25.8376 25.8376 6.25 50 6.25C74.1625 6.25 93.75 25.8376 93.75 50C93.75 74.1625 74.1625 93.75 50 93.75C25.8376 93.75 6.25 74.1625 6.25 50Z" fill="#426FFF"/>
</svg>
